<?xml version="1.0"?>
<svg xmlns="http://www.w3.org/2000/svg">
    <line x1="16400" 
       y1="10000" 
       x2="18000" 
       y2="10000" 
       style="stroke:blue; stroke-width:1" />
    <line x1="14200" 
       y1="2000" 
       x2="14200" 
       y2="0" 
       style="stroke:blue; stroke-width:1" />
    <line x1="14600" 
       y1="10000" 
       x2="14600" 
       y2="4000" 
       style="stroke:blue; stroke-width:1" />
    <line x1="16400" 
       y1="10000" 
       x2="16400" 
       y2="7000" 
       style="stroke:blue; stroke-width:1" />
    <line x1="17025" 
       y1="1900" 
       x2="18725" 
       y2="1900" 
       style="stroke:blue; stroke-width:1" />
    <line x1="1850" 
       y1="2775" 
       x2="1850" 
       y2="1975" 
       style="stroke:blue; stroke-width:1" />
    <line x1="11900" 
       y1="13000" 
       x2="12300" 
       y2="13000" 
       style="stroke:blue; stroke-width:1" />
    <line x1="0" 
       y1="675" 
       x2="2050" 
       y2="675" 
       style="stroke:blue; stroke-width:1" />
    <line x1="8900" 
       y1="12100" 
       x2="8900" 
       y2="13000" 
       style="stroke:blue; stroke-width:1" />
    <line x1="18670" 
       y1="14000" 
       x2="18670" 
       y2="0" 
       style="stroke:blue; stroke-width:1" />
    <line x1="0" 
       y1="14000" 
       x2="18000" 
       y2="14000" 
       style="stroke:blue; stroke-width:1" />
    <line x1="0" 
       y1="12000" 
       x2="3000" 
       y2="12000" 
       style="stroke:blue; stroke-width:1" />
    <line x1="10025" 
       y1="2000" 
       x2="10250" 
       y2="2000" 
       style="stroke:blue; stroke-width:1" />
    <line x1="14400" 
       y1="1900" 
       x2="14500" 
       y2="1000" 
       style="stroke:blue; stroke-width:1" />
    <line x1="7960" 
       y1="4960" 
       x2="8200" 
       y2="4960" 
       style="stroke:blue; stroke-width:1" />
    <line x1="10000" 
       y1="12100" 
       x2="12000" 
       y2="12100" 
       style="stroke:blue; stroke-width:1" />
    <line x1="0" 
       y1="0" 
       x2="0" 
       y2="14000" 
       style="stroke:blue; stroke-width:1" />
    <line x1="12000" 
       y1="12000" 
       x2="12000" 
       y2="12100" 
       style="stroke:blue; stroke-width:1" />
    <line x1="0" 
       y1="10" 
       x2="18000" 
       y2="10" 
       style="stroke:blue; stroke-width:1" />
    <line x1="8200" 
       y1="4960" 
       x2="8200" 
       y2="9800" 
       style="stroke:blue; stroke-width:1" />
    <line x1="4100" 
       y1="13000" 
       x2="4200" 
       y2="12100" 
       style="stroke:blue; stroke-width:1" />
    <line x1="2000" 
       y1="625" 
       x2="2000" 
       y2="75" 
       style="stroke:blue; stroke-width:1" />
    <line x1="16400" 
       y1="4000" 
       x2="18000" 
       y2="4000" 
       style="stroke:blue; stroke-width:1" />
    <line x1="18000" 
       y1="10000" 
       x2="18760" 
       y2="10000" 
       style="stroke:blue; stroke-width:1" />
    <line x1="10000" 
       y1="12000" 
       x2="10000" 
       y2="12100" 
       style="stroke:blue; stroke-width:1" />
    <line x1="10250" 
       y1="975" 
       x2="10250" 
       y2="2000" 
       style="stroke:blue; stroke-width:1" />
    <line x1="8000" 
       y1="12000" 
       x2="8000" 
       y2="12100" 
       style="stroke:blue; stroke-width:1" />
    <line x1="5100" 
       y1="12000" 
       x2="5100" 
       y2="12100" 
       style="stroke:blue; stroke-width:1" />
    <line x1="4200" 
       y1="12000" 
       x2="4200" 
       y2="12100" 
       style="stroke:blue; stroke-width:1" />
    <line x1="3900" 
       y1="12000" 
       x2="3900" 
       y2="12100" 
       style="stroke:blue; stroke-width:1" />
    <line x1="7960" 
       y1="9800" 
       x2="8200" 
       y2="9800" 
       style="stroke:blue; stroke-width:1" />
    <line x1="15300" 
       y1="2000" 
       x2="18000" 
       y2="2000" 
       style="stroke:blue; stroke-width:1" />
    <line x1="3100" 
       y1="4910" 
       x2="3200" 
       y2="4960" 
       style="stroke:blue; stroke-width:1" />
    <line x1="15300" 
       y1="1900" 
       x2="17000" 
       y2="1900" 
       style="stroke:blue; stroke-width:1" />
    <line x1="2800" 
       y1="11975" 
       x2="3050" 
       y2="11975" 
       style="stroke:blue; stroke-width:1" />
    <line x1="8900" 
       y1="12000" 
       x2="9200" 
       y2="12000" 
       style="stroke:blue; stroke-width:1" />
    <line x1="2800" 
       y1="12475" 
       x2="2800" 
       y2="11975" 
       style="stroke:blue; stroke-width:1" />
    <line x1="2800" 
       y1="12475" 
       x2="3050" 
       y2="12475" 
       style="stroke:blue; stroke-width:1" />
    <line x1="12500" 
       y1="10000" 
       x2="14600" 
       y2="10000" 
       style="stroke:blue; stroke-width:1" />
    <line x1="3900" 
       y1="12000" 
       x2="4200" 
       y2="12000" 
       style="stroke:blue; stroke-width:1" />
    <line x1="11600" 
       y1="9800" 
       x2="11600" 
       y2="10000" 
       style="stroke:blue; stroke-width:1" />
    <line x1="9200" 
       y1="12100" 
       x2="10000" 
       y2="12100" 
       style="stroke:blue; stroke-width:1" />
    <line x1="10025" 
       y1="2000" 
       x2="10025" 
       y2="975" 
       style="stroke:blue; stroke-width:1" />
    <line x1="14600" 
       y1="12000" 
       x2="14600" 
       y2="14000" 
       style="stroke:blue; stroke-width:1" />
    <line x1="10025" 
       y1="975" 
       x2="10250" 
       y2="975" 
       style="stroke:blue; stroke-width:1" />
    <line x1="17990" 
       y1="14000" 
       x2="18670" 
       y2="14000" 
       style="stroke:blue; stroke-width:1" />
    <line x1="12000" 
       y1="12100" 
       x2="12300" 
       y2="13000" 
       style="stroke:blue; stroke-width:1" />
    <line x1="3200" 
       y1="4960" 
       x2="3200" 
       y2="9760" 
       style="stroke:blue; stroke-width:1" />
    <line x1="3000" 
       y1="9760" 
       x2="3200" 
       y2="9760" 
       style="stroke:blue; stroke-width:1" />
    <line x1="5100" 
       y1="12000" 
       x2="8000" 
       y2="12000" 
       style="stroke:blue; stroke-width:1" />
    <line x1="1900" 
       y1="1975" 
       x2="2000" 
       y2="1975" 
       style="stroke:blue; stroke-width:1" />
    <line x1="50" 
       y1="2975" 
       x2="2050" 
       y2="2975" 
       style="stroke:blue; stroke-width:1" />
    <line x1="50" 
       y1="2775" 
       x2="1850" 
       y2="2775" 
       style="stroke:blue; stroke-width:1" />
    <line x1="17975" 
       y1="0" 
       x2="18700" 
       y2="0" 
       style="stroke:blue; stroke-width:1" />
    <line x1="12800" 
       y1="12100" 
       x2="14600" 
       y2="12100" 
       style="stroke:blue; stroke-width:1" />
    <line x1="15300" 
       y1="1900" 
       x2="15300" 
       y2="2000" 
       style="stroke:blue; stroke-width:1" />
    <line x1="3050" 
       y1="11975" 
       x2="3050" 
       y2="12475" 
       style="stroke:blue; stroke-width:1" />
    <line x1="14400" 
       y1="1900" 
       x2="14400" 
       y2="2000" 
       style="stroke:blue; stroke-width:1" />
    <line x1="10000" 
       y1="4000" 
       x2="14600" 
       y2="4000" 
       style="stroke:blue; stroke-width:1" />
    <line x1="18040" 
       y1="2000" 
       x2="18760" 
       y2="2000" 
       style="stroke:blue; stroke-width:1" />
    <line x1="4000" 
       y1="12000" 
       x2="4000" 
       y2="14000" 
       style="stroke:blue; stroke-width:1" />
    <line x1="6500" 
       y1="12000" 
       x2="6500" 
       y2="14000" 
       style="stroke:blue; stroke-width:1" />
    <line x1="9000" 
       y1="12000" 
       x2="9000" 
       y2="14000" 
       style="stroke:blue; stroke-width:1" />
    <line x1="12800" 
       y1="12000" 
       x2="12800" 
       y2="12100" 
       style="stroke:blue; stroke-width:1" />
    <line x1="0" 
       y1="10000" 
       x2="11600" 
       y2="10000" 
       style="stroke:blue; stroke-width:1" />
    <line x1="3000" 
       y1="12000" 
       x2="3000" 
       y2="12100" 
       style="stroke:blue; stroke-width:1" />
    <line x1="0" 
       y1="9800" 
       x2="11600" 
       y2="9800" 
       style="stroke:blue; stroke-width:1" />
    <line x1="2000" 
       y1="2025" 
       x2="2000" 
       y2="2975" 
       style="stroke:blue; stroke-width:1" />
    <line x1="3900" 
       y1="12100" 
       x2="4200" 
       y2="12100" 
       style="stroke:blue; stroke-width:1" />
    <line x1="8900" 
       y1="12100" 
       x2="9200" 
       y2="12100" 
       style="stroke:blue; stroke-width:1" />
    <line x1="5100" 
       y1="12100" 
       x2="8000" 
       y2="12100" 
       style="stroke:blue; stroke-width:1" />
    <line x1="10000" 
       y1="12000" 
       x2="12000" 
       y2="12000" 
       style="stroke:blue; stroke-width:1" />
    <line x1="12800" 
       y1="12000" 
       x2="14600" 
       y2="12000" 
       style="stroke:blue; stroke-width:1" />
    <line x1="8900" 
       y1="12000" 
       x2="8900" 
       y2="12100" 
       style="stroke:blue; stroke-width:1" />
    <line x1="9200" 
       y1="12000" 
       x2="9200" 
       y2="12100" 
       style="stroke:blue; stroke-width:1" />
    <line x1="12500" 
       y1="9800" 
       x2="14600" 
       y2="9800" 
       style="stroke:blue; stroke-width:1" />
    <line x1="3000" 
       y1="9760" 
       x2="3000" 
       y2="4960" 
       style="stroke:blue; stroke-width:1" />
    <line x1="17960" 
       y1="4000" 
       x2="18720" 
       y2="4000" 
       style="stroke:blue; stroke-width:1" />
    <line x1="10050" 
       y1="2000" 
       x2="14450" 
       y2="2000" 
       style="stroke:blue; stroke-width:1" />
    <line x1="14200" 
       y1="1900" 
       x2="14400" 
       y2="1900" 
       style="stroke:blue; stroke-width:1" />
    <line x1="12500" 
       y1="9800" 
       x2="12500" 
       y2="10000" 
       style="stroke:blue; stroke-width:1" />
    <line x1="7960" 
       y1="9800" 
       x2="7960" 
       y2="4960" 
       style="stroke:blue; stroke-width:1" />
    <line x1="13300" 
       y1="7421" 
       x2="13300" 
       y2="6301" 
       style="stroke:blue; stroke-width:1" />
    <line x1="13300" 
       y1="6301" 
       x2="9380" 
       y2="6301" 
       style="stroke:blue; stroke-width:1" />
    <line x1="9380" 
       y1="6301" 
       x2="9380" 
       y2="7421" 
       style="stroke:blue; stroke-width:1" />
    <line x1="9380" 
       y1="7421" 
       x2="13300" 
       y2="7421" 
       style="stroke:blue; stroke-width:1" />
    <line x1="17300" 
       y1="12782" 
       x2="18525" 
       y2="12782" 
       style="stroke:blue; stroke-width:1" />
    <line x1="18525" 
       y1="12782" 
       x2="18525" 
       y2="13867" 
       style="stroke:blue; stroke-width:1" />
    <line x1="17300" 
       y1="13867" 
       x2="18525" 
       y2="13867" 
       style="stroke:blue; stroke-width:1" />
    <line x1="17300" 
       y1="13867" 
       x2="17300" 
       y2="12782" 
       style="stroke:blue; stroke-width:1" />
    <line x1="11900" 
       y1="12000" 
       x2="11900" 
       y2="14000" 
       style="stroke:blue; stroke-width:1" />
    <line x1="16490" 
       y1="9813" 
       x2="16535" 
       y2="9948" 
       style="stroke:blue; stroke-width:1" />
    <line x1="16535" 
       y1="9948" 
       x2="16535" 
       y2="7023" 
       style="stroke:blue; stroke-width:1" />
    <line x1="16445" 
       y1="6978" 
       x2="16535" 
       y2="6978" 
       style="stroke:blue; stroke-width:1" />
    <line x1="16535" 
       y1="6978" 
       x2="16535" 
       y2="7023" 
       style="stroke:blue; stroke-width:1" />
    <line x1="16400" 
       y1="4008" 
       x2="16400" 
       y2="6168" 
       style="stroke:blue; stroke-width:1" />
    <line x1="18605" 
       y1="9813" 
       x2="18650" 
       y2="9768" 
       style="stroke:blue; stroke-width:1" />
    <line x1="18605" 
       y1="9813" 
       x2="18650" 
       y2="9858" 
       style="stroke:blue; stroke-width:1" />
    <line x1="16445" 
       y1="6123" 
       x2="16445" 
       y2="6168" 
       style="stroke:blue; stroke-width:1" />
    <line x1="16535" 
       y1="6168" 
       x2="16535" 
       y2="4008" 
       style="stroke:blue; stroke-width:1" />
    <line x1="16535" 
       y1="4008" 
       x2="16535" 
       y2="4053" 
       style="stroke:blue; stroke-width:1" />
</svg>
